<?xml version="1.0" encoding="UTF-8" standalone="no" ?>
<!DOCTYPE svg PUBLIC "-//W3C//DTD SVG 1.1//EN" "http://www.w3.org/Graphics/SVG/1.1/DTD/svg11.dtd">
<svg xmlns="http://www.w3.org/2000/svg" xmlns:xlink="http://www.w3.org/1999/xlink" version="1.1" width="1080" height="1080" viewBox="0 0 1080 1080" xml:space="preserve">
<desc>Created with Fabric.js 5.2.4</desc>
<defs>
</defs>
<g transform="matrix(1 0 0 1 540 540)" id="54118b91-2dfa-40c3-8fc5-45f2ebc77471"  >
<rect style="stroke: none; stroke-width: 1; stroke-dasharray: none; stroke-linecap: butt; stroke-dashoffset: 0; stroke-linejoin: miter; stroke-miterlimit: 4; fill: rgb(255,255,255); fill-rule: nonzero; opacity: 1; visibility: hidden;" vector-effect="non-scaling-stroke"  x="-540" y="-540" rx="0" ry="0" width="1080" height="1080" />
</g>
<g transform="matrix(1 0 0 1 540 540)" id="4b560c0e-b8d1-4940-ab8f-dab2d3d087c4"  >
</g>
<g transform="matrix(1 0 0 1 540 540)"  >
<path style="stroke: rgb(0,0,0); stroke-width: 0; stroke-dasharray: none; stroke-linecap: butt; stroke-dashoffset: 0; stroke-linejoin: miter; stroke-miterlimit: 4; fill: rgb(255,222,68); fill-rule: nonzero; opacity: 1;" vector-effect="non-scaling-stroke"  transform=" translate(-8, -8)" d="M 1 8 C 1 7.723857625084603 1.2238576250846034 7.5 1.5 7.5 L 13.293 7.5 L 10.145999999999999 4.354 C 9.950491198559899 4.158491198559899 9.950491198559899 3.841508801440101 10.145999999999999 3.646 C 10.3415088014401 3.4504911985598987 10.658491198559899 3.450491198559899 10.854 3.646 L 14.854 7.646 C 14.948041700687634 7.739804263010167 15.000893783685417 7.8671727391417585 15.000893783685417 7.999999999999999 C 15.000893783685417 8.13282726085824 14.948041700687634 8.260195736989832 14.854 8.354 L 10.854 12.354 C 10.658491198559899 12.5495088014401 10.3415088014401 12.5495088014401 10.145999999999999 12.354 C 9.950491198559899 12.158491198559899 9.950491198559899 11.8415088014401 10.145999999999999 11.645999999999999 L 13.293 8.5 L 1.5 8.5 C 1.2238576250846034 8.5 1 8.276142374915397 1 8" stroke-linecap="round" />
</g>
<g transform="matrix(NaN NaN NaN NaN 0 0)"  >
<g style=""   >
</g>
</g>
<g transform="matrix(NaN NaN NaN NaN 0 0)"  >
<g style=""   >
</g>
</g>
</svg>